<svg xmlns="http://www.w3.org/2000/svg" width="15" height="15" viewBox="0 0 15 15">
    <g fill="#BDBDBD" fill-rule="nonzero">
        <path d="M7.73 1.096a4.565 4.565 0 0 0-3.122 7.9v4.947a.568.568 0 0 0 .906.456l2.216-1.64 2.215 1.64a.568.568 0 0 0 .906-.456V8.995A4.565 4.565 0 0 0 7.73 1.096zm1.986 11.62l-1.648-1.223a.568.568 0 0 0-.675 0l-1.65 1.228V9.776a4.563 4.563 0 0 0 3.973 0v2.94zM7.73 9.097a3.434 3.434 0 1 1 0-6.867 3.434 3.434 0 0 1 0 6.867z"/>
        <path d="M9.453 4.736l-.834-.128-.369-.757a.568.568 0 0 0-.507-.32.568.568 0 0 0-.51.307l-.38.757-.835.115a.568.568 0 0 0-.322.965l.6.594-.15.83a.568.568 0 0 0 .827.608l.757-.379.745.4a.568.568 0 0 0 .829-.593l-.153-.838.609-.584a.568.568 0 0 0-.307-.97v-.007zM7.981 6.174a.568.568 0 0 0-.516 0 .568.568 0 0 0-.155-.492.568.568 0 0 0 .42-.304.568.568 0 0 0 .414.306.568.568 0 0 0-.163.49z"/>
    </g>
</svg>
